<svg width="20" height="20" viewBox="0 0 20 20" fill="none" xmlns="http://www.w3.org/2000/svg">
<path d="M13.75 9.16665C14.4403 9.16665 15 8.60701 15 7.91665C15 7.2263 14.4403 6.66665 13.75 6.66665C13.0596 6.66665 12.5 7.2263 12.5 7.91665C12.5 8.60701 13.0596 9.16665 13.75 9.16665Z" fill="#38B000"/>
<path d="M9.16663 7.08332C9.16663 7.77368 8.60698 8.33332 7.91663 8.33332C7.22627 8.33332 6.66663 7.77368 6.66663 7.08332C6.66663 6.39296 7.22627 5.83332 7.91663 5.83332C8.60698 5.83332 9.16663 6.39296 9.16663 7.08332Z" fill="#38B000"/>
<path d="M6.24996 13.3333C6.94031 13.3333 7.49996 12.7737 7.49996 12.0833C7.49996 11.393 6.94031 10.8333 6.24996 10.8333C5.5596 10.8333 4.99996 11.393 4.99996 12.0833C4.99996 12.7737 5.5596 13.3333 6.24996 13.3333Z" fill="#38B000"/>
<path fill-rule="evenodd" clip-rule="evenodd" d="M16.2494 15.4167C17.7413 15.4167 18.6461 14.1743 19.0553 12.8896C19.4803 11.555 19.5118 9.84491 19.0886 8.1801C18.6632 6.5069 17.7623 4.81651 16.2531 3.56976C14.732 2.31319 12.6502 1.5555 9.96477 1.66739C7.09038 1.78716 4.93032 2.65002 3.4323 3.99945C1.93482 5.34839 1.16787 7.12196 0.970544 8.93421C0.584262 12.4819 2.37794 16.3988 5.47195 17.8346C6.04596 18.1196 6.8158 18.3541 7.58797 18.5017C8.36509 18.6503 9.21683 18.7246 9.94666 18.6431C10.3107 18.6024 10.6881 18.5184 11.0206 18.354C11.3589 18.1867 11.6985 17.9101 11.873 17.4735C12.0478 17.0363 12.0014 16.5779 11.8474 16.1594C11.6959 15.7476 11.4235 15.3231 11.0569 14.8832C10.6862 14.4383 10.7047 14.2335 10.7089 14.206C10.7133 14.1773 10.7433 14.0724 10.9809 13.9174C11.013 13.8965 11.0774 13.8661 11.2472 13.8911C11.4318 13.9182 11.6706 14.0018 11.9767 14.1467C12.2018 14.2533 12.4227 14.3724 12.661 14.501C12.7489 14.5484 12.8391 14.5971 12.9328 14.6469C13.2564 14.8189 13.6272 15.0073 13.99 15.1234C14.5784 15.3116 15.319 15.4167 16.2494 15.4167ZM10.0342 3.33261C12.349 3.23616 14.0174 3.88472 15.1916 4.85471C16.3777 5.83452 17.1174 7.19101 17.4733 8.59072C17.8312 9.99883 17.7844 11.3877 17.4672 12.3838C17.134 13.4299 16.6326 13.75 16.2494 13.75C15.4363 13.75 14.8768 13.6572 14.4979 13.536C14.2923 13.4702 14.039 13.3473 13.715 13.1751C13.6421 13.1364 13.565 13.0948 13.4849 13.0516C13.2359 12.9172 12.9581 12.7673 12.6898 12.6403C12.3334 12.4716 11.9183 12.3051 11.4896 12.2421C11.0461 12.1769 10.538 12.2163 10.0702 12.5216C9.63761 12.8038 9.1669 13.262 9.06126 13.9547C8.95543 14.6488 9.25459 15.3238 9.77654 15.9501C10.0768 16.3104 10.2221 16.5685 10.2833 16.7349C10.3011 16.7834 10.31 16.8186 10.3143 16.8425C10.3057 16.8477 10.2949 16.8535 10.2818 16.86C10.1846 16.9081 10.0158 16.9584 9.76167 16.9867C9.25514 17.0433 8.58227 16.9949 7.90087 16.8647C7.21981 16.7345 6.60244 16.5365 6.20557 16.338L6.19391 16.3322L6.18208 16.3267C3.86658 15.258 2.30067 12.1156 2.62742 9.11462C2.78686 7.65029 3.39619 6.27515 4.54779 5.23777C5.69885 4.20089 7.46065 3.43984 10.0342 3.33261ZM10.3463 16.8197L10.3457 16.8203L10.3441 16.822L10.3463 16.8197C10.3464 16.8196 10.3464 16.8197 10.3463 16.8197Z" fill="#38B000"/>
</svg>
